<?xml version="1.0" encoding="utf-8"?>
<!DOCTYPE svg PUBLIC "-//W3C//DTD SVG 20010904//EN" "http://www.w3.org/TR/2001/REC-SVG-20010904/DTD/svg10.dtd">
<svg version="1.0" xmlns="http://www.w3.org/2000/svg" width="932pt" height="963pt" viewBox="0 0 932 963" style="" preserveAspectRatio="xMidYMid meet">
<g fill="#1D1B1CFF" stroke="#1D1B1CFF">
<path d="M 582.479 62.021 C 579.782 64.759 577.783 67.053 578.038 67.118 C 578.292 67.184 578.150 67.179 577.722 67.109 C 577.294 67.039 576.702 67.613 576.406 68.385 C 576.110 69.156 572.666 73.098 568.754 77.144 C 554.681 91.696 552.581 94.002 553.285 94.125 C 553.678 94.194 553.514 94.306 552.919 94.375 C 552.325 94.444 551.313 95.203 550.669 96.062 C 550.026 96.921 548.648 97.944 547.607 98.336 C 546.566 98.727 546.041 99.374 546.440 99.774 C 546.840 100.173 546.792 100.500 546.333 100.501 C 544.644 100.502 537.080 107.321 537.684 108.298 C 538.028 108.854 537.842 109.021 537.272 108.668 C 536.112 107.951 530.567 111.901 531.469 112.802 C 531.785 113.118 531.416 113.468 530.650 113.581 C 528.150 113.948 524.001 117.193 524.663 118.264 C 525.018 118.839 524.836 119.017 524.257 118.659 C 523.679 118.302 520.129 119.807 516.369 122.005 C 512.608 124.202 509.975 126.038 510.516 126.083 C 511.057 126.129 510.420 126.284 509.101 126.427 C 507.781 126.571 506.162 127.426 505.502 128.328 C 504.842 129.231 504.009 129.676 503.651 129.318 C 503.293 128.960 503.000 129.178 503.000 129.802 C 503.000 130.426 502.325 130.678 501.500 130.362 C 500.675 130.045 500.000 130.270 500.000 130.862 C 500.000 131.453 499.325 131.678 498.500 131.362 C 497.675 131.045 497.000 131.242 497.000 131.799 C 497.000 132.357 496.100 132.577 495.000 132.290 C 493.900 132.002 493.000 132.227 493.000 132.790 C 493.000 133.352 491.988 133.563 490.750 133.259 C 489.445 132.937 488.850 133.082 489.333 133.602 C 490.449 134.804 488.237 134.949 462.500 135.360 C 447.813 135.595 440.500 135.369 440.500 134.680 C 440.500 134.112 442.975 133.579 446.000 133.496 C 449.025 133.412 450.825 133.234 450.000 133.101 C 449.175 132.967 451.421 132.023 454.992 131.004 C 458.562 129.984 461.653 129.320 461.860 129.526 C 462.067 129.733 461.037 130.204 459.571 130.571 C 458.106 130.939 457.125 131.459 457.393 131.726 C 457.660 131.993 460.043 131.377 462.689 130.356 C 466.425 128.915 466.941 128.478 465.000 128.403 C 462.960 128.325 462.822 128.167 464.250 127.546 C 465.213 127.128 466.675 127.045 467.500 127.362 C 469.414 128.096 472.162 127.072 471.435 125.895 C 471.131 125.403 471.385 125.000 472.000 125.000 C 472.615 125.000 472.805 124.493 472.422 123.874 C 471.910 123.045 472.224 123.037 473.613 123.843 C 474.881 124.580 475.035 124.949 474.083 124.970 C 473.304 124.986 472.926 125.259 473.243 125.576 C 473.560 125.893 479.365 123.369 486.145 119.968 C 498.496 113.771 503.248 111.000 501.523 111.000 C 501.015 111.000 501.140 110.460 501.800 109.800 C 502.733 108.867 503.000 108.904 503.000 109.967 C 503.000 111.405 504.410 110.493 504.625 108.917 C 504.694 108.413 504.806 107.550 504.875 107.000 C 504.944 106.450 505.505 106.000 506.122 106.000 C 506.898 106.000 506.860 106.464 506.000 107.500 C 504.050 109.850 505.649 109.286 511.438 105.583 C 516.852 102.120 518.986 100.000 517.059 100.000 C 516.477 100.000 516.000 100.477 516.000 101.059 C 516.000 101.641 515.480 101.797 514.845 101.405 C 514.077 100.930 513.965 101.134 514.510 102.015 C 515.116 102.997 514.863 103.161 513.531 102.650 C 512.537 102.269 508.104 103.042 503.617 104.379 C 499.152 105.710 490.100 107.998 483.500 109.464 C 476.900 110.930 470.825 112.395 470.000 112.719 C 469.175 113.042 467.713 113.210 466.750 113.091 C 465.788 112.972 465.000 113.310 465.000 113.842 C 465.000 114.394 463.281 114.579 461.000 114.273 C 458.494 113.937 457.000 114.136 457.000 114.805 C 457.000 115.461 455.695 115.663 453.627 115.327 C 451.750 115.022 449.968 115.243 449.609 115.824 C 449.247 116.409 447.323 116.641 445.232 116.351 C 442.389 115.958 441.857 116.092 443.000 116.916 C 444.095 117.706 442.093 117.820 435.592 117.339 C 428.952 116.848 426.867 116.976 427.401 117.840 C 427.881 118.616 427.187 118.995 425.309 118.985 C 423.128 118.973 422.835 118.753 424.000 118.000 C 425.314 117.151 425.304 117.029 423.917 117.015 C 423.046 117.007 422.133 117.200 421.888 117.445 C 421.644 117.690 412.231 118.079 400.972 118.310 C 389.712 118.541 381.625 118.386 383.000 117.965 C 384.375 117.544 373.013 117.155 357.750 117.100 C 339.635 117.035 330.000 117.351 330.000 118.012 C 330.000 118.627 328.480 118.781 326.126 118.404 C 323.718 118.019 321.991 118.205 321.564 118.896 C 321.161 119.548 319.766 119.741 318.189 119.363 C 316.710 119.009 315.833 119.077 316.240 119.516 C 316.647 119.954 314.449 120.425 311.357 120.562 C 308.265 120.699 305.457 121.191 305.117 121.655 C 304.778 122.120 304.050 122.509 303.500 122.520 C 300.439 122.580 295.000 124.234 295.000 125.104 C 295.000 125.662 294.591 125.865 294.090 125.556 C 292.727 124.714 289.918 126.059 290.631 127.212 C 291.020 127.841 290.413 127.948 289.000 127.500 C 287.326 126.969 286.949 127.109 287.529 128.047 C 288.043 128.879 287.905 129.059 287.125 128.577 C 286.473 128.174 283.816 129.106 281.220 130.646 C 278.624 132.187 277.155 133.459 277.956 133.474 C 278.757 133.488 278.082 134.366 276.456 135.425 C 273.582 137.296 273.542 137.297 275.000 135.448 C 279.695 129.499 259.619 147.866 252.284 156.230 C 247.453 161.740 241.957 167.655 240.070 169.374 C 230.034 178.523 219.705 190.714 220.669 192.274 C 221.033 192.862 220.824 193.010 220.187 192.615 C 218.956 191.855 211.649 205.316 212.714 206.381 C 213.055 206.721 212.877 207.000 212.319 207.000 C 210.821 207.000 207.647 214.621 208.542 216.068 C 209.007 216.820 208.898 217.055 208.267 216.665 C 206.330 215.468 199.117 238.257 200.386 241.564 C 200.711 242.411 200.589 242.864 200.115 242.571 C 198.454 241.545 195.840 260.817 194.494 284.000 C 194.068 291.344 194.195 294.049 194.916 293.000 C 195.643 291.942 195.792 294.082 195.423 300.257 C 194.779 311.035 198.778 343.426 201.688 351.000 C 202.005 351.825 202.391 353.430 202.545 354.568 C 203.181 359.267 205.152 365.024 205.953 364.529 C 206.426 364.236 206.605 364.793 206.351 365.765 C 206.097 366.738 206.776 369.516 207.861 371.939 C 209.635 375.900 209.879 376.100 210.284 373.922 C 210.532 372.590 210.573 373.130 210.376 375.123 C 210.178 377.116 210.630 380.491 211.379 382.623 C 212.706 386.403 212.667 386.563 209.803 389.000 C 207.630 390.849 206.716 392.673 206.295 396.000 C 205.981 398.475 206.103 400.146 206.566 399.714 C 207.028 399.281 207.458 400.631 207.521 402.714 C 207.660 407.267 211.542 416.401 212.965 415.522 C 213.534 415.170 213.743 415.507 213.441 416.292 C 213.147 417.060 214.210 419.084 215.805 420.791 C 218.096 423.244 218.837 425.163 219.336 429.944 C 220.035 436.629 224.157 447.500 225.994 447.500 C 226.639 447.500 226.864 447.802 226.495 448.171 C 226.126 448.541 227.043 450.924 228.533 453.467 C 230.024 456.010 231.526 457.808 231.871 457.462 C 232.217 457.116 232.500 457.321 232.500 457.917 C 232.500 458.513 232.922 458.988 233.437 458.973 C 233.953 458.957 234.478 459.651 234.605 460.514 C 234.878 462.376 239.824 466.457 241.983 466.602 C 242.817 466.658 243.159 466.771 242.742 466.852 C 242.324 466.933 242.404 467.788 242.919 468.750 C 243.434 469.713 244.398 473.302 245.060 476.728 C 245.722 480.153 246.612 482.740 247.039 482.476 C 247.465 482.213 247.605 482.795 247.350 483.770 C 246.754 486.049 254.567 501.713 257.084 503.285 C 258.138 503.943 259.000 504.940 259.000 505.500 C 259.000 506.060 260.013 507.141 261.250 507.901 L 263.500 509.283 261.500 506.892 L 259.500 504.500 261.726 506.384 C 262.951 507.420 263.743 508.606 263.487 509.020 C 263.231 509.435 263.692 510.329 264.511 511.009 C 265.330 511.689 266.056 511.965 266.125 511.622 C 266.194 511.280 266.306 511.478 266.375 512.061 C 266.578 513.789 277.347 520.123 279.251 519.635 C 280.326 519.360 280.745 519.603 280.337 520.263 C 279.916 520.944 280.283 521.105 281.336 520.701 C 282.251 520.350 283.000 520.499 283.000 521.031 C 283.000 522.285 286.700 522.295 287.473 521.044 C 287.798 520.518 288.804 520.371 289.709 520.719 C 291.156 521.274 291.122 521.436 289.427 522.068 C 288.367 522.463 301.585 522.838 318.800 522.901 C 351.475 523.021 355.461 522.586 352.832 519.180 C 351.706 517.723 351.808 517.732 353.596 519.250 C 354.730 520.213 357.197 521.068 359.079 521.150 C 362.207 521.288 362.115 521.360 358.000 522.000 C 354.133 522.601 354.656 522.721 361.719 522.850 C 369.026 522.983 369.866 522.815 369.295 521.326 C 368.781 519.987 369.037 519.809 370.576 520.437 C 373.425 521.599 374.473 521.615 374.731 520.500 C 374.857 519.950 374.182 519.454 373.231 519.398 C 372.279 519.342 370.038 519.229 368.250 519.148 C 366.463 519.067 365.000 518.504 365.000 517.897 C 365.000 517.164 366.761 516.976 370.250 517.336 C 373.138 517.635 374.874 517.622 374.108 517.309 C 373.190 516.933 373.826 516.272 375.973 515.369 C 380.208 513.588 382.415 513.671 378.500 515.464 C 373.623 517.697 376.454 517.189 383.351 514.592 C 386.868 513.268 391.667 510.906 394.013 509.342 C 396.359 507.779 397.204 506.950 395.889 507.500 C 394.065 508.264 393.500 508.185 393.500 507.167 C 393.500 506.433 393.827 506.160 394.226 506.559 C 394.625 506.958 395.618 506.732 396.432 506.056 C 397.246 505.381 398.351 505.099 398.887 505.430 C 399.423 505.762 400.187 505.506 400.585 504.862 C 401.035 504.135 400.876 503.959 400.166 504.397 C 399.422 504.857 399.234 504.553 399.628 503.526 C 400.096 502.307 400.548 502.210 401.617 503.097 C 402.378 503.728 403.056 503.965 403.125 503.622 C 403.194 503.280 403.327 502.438 403.420 501.750 C 403.514 501.063 404.079 500.595 404.676 500.710 C 405.273 500.826 406.603 499.961 407.631 498.788 C 408.659 497.616 408.938 496.985 408.250 497.387 C 407.563 497.789 407.000 497.681 407.000 497.148 C 407.000 495.554 413.082 490.933 414.239 491.648 C 414.877 492.042 415.017 491.836 414.585 491.138 C 414.187 490.494 413.398 490.254 412.831 490.604 C 412.264 490.955 412.392 490.175 413.115 488.871 C 413.931 487.399 414.448 487.069 414.480 488.000 C 414.524 489.291 414.658 489.299 415.442 488.059 C 416.036 487.121 415.946 486.482 415.185 486.228 C 414.342 485.947 414.307 485.295 415.058 483.891 C 415.631 482.820 416.481 482.179 416.945 482.466 C 418.130 483.199 419.067 480.339 418.299 478.336 C 417.845 477.153 418.029 476.900 418.937 477.461 C 419.894 478.053 420.035 477.686 419.500 476.000 C 419.018 474.483 419.142 473.969 419.878 474.424 C 420.622 474.884 420.789 474.049 420.401 471.800 C 419.987 469.401 420.109 468.895 420.847 469.948 C 421.579 470.991 421.747 470.153 421.448 466.948 C 421.106 463.287 421.204 462.943 422.001 465.000 C 422.774 466.997 422.862 466.602 422.438 463.038 C 422.147 460.583 422.246 458.912 422.658 459.324 C 423.070 459.736 423.428 452.841 423.453 444.001 C 423.492 430.839 423.772 427.757 425.000 426.980 C 425.825 426.458 433.475 426.077 442.000 426.134 C 451.291 426.195 456.298 426.542 454.500 427.000 L 451.500 427.763 454.750 427.882 L 458.000 428.000 458.069 441.750 C 458.107 449.313 458.304 456.850 458.506 458.500 C 458.709 460.150 459.155 463.825 459.499 466.667 C 459.910 470.070 460.699 472.115 461.812 472.660 C 462.740 473.115 462.938 473.377 462.250 473.243 C 460.633 472.929 460.636 472.952 463.076 479.474 C 464.335 482.837 465.577 484.761 466.231 484.357 C 466.862 483.967 467.020 484.158 466.613 484.817 C 466.230 485.437 466.723 487.174 467.708 488.678 C 468.694 490.182 469.556 490.869 469.625 490.206 C 469.750 488.999 470.108 489.621 470.370 491.500 C 470.695 493.835 473.187 497.002 474.205 496.373 C 474.812 495.998 475.030 496.142 474.690 496.692 C 474.350 497.243 475.475 499.000 477.190 500.597 C 478.906 502.194 479.964 502.899 479.543 502.164 C 479.121 501.430 480.833 502.885 483.346 505.399 C 486.561 508.614 488.422 509.775 489.622 509.315 C 490.910 508.821 491.118 509.008 490.472 510.080 C 489.751 511.276 489.897 511.272 491.397 510.054 C 492.997 508.755 493.143 508.806 492.839 510.554 C 492.585 512.012 493.078 512.507 494.807 512.526 C 496.076 512.540 496.845 512.821 496.516 513.151 C 495.579 514.088 503.757 517.030 505.470 516.373 C 506.312 516.050 507.000 516.314 507.000 516.960 C 507.000 517.703 507.782 517.887 509.125 517.460 C 510.509 517.021 511.022 517.156 510.594 517.848 C 510.164 518.543 511.201 518.797 513.598 518.581 C 515.612 518.401 518.438 518.868 519.880 519.620 C 521.813 520.629 527.250 520.989 540.625 520.994 C 559.124 521.000 565.390 521.560 564.425 523.122 C 564.126 523.605 564.584 524.000 565.441 524.000 C 566.298 524.000 567.007 523.213 567.015 522.250 C 567.025 521.175 567.314 520.922 567.765 521.595 C 568.658 522.926 576.231 522.183 575.405 520.845 C 575.056 520.281 576.951 520.131 580.163 520.468 C 584.194 520.891 585.010 520.775 583.500 519.995 C 581.849 519.142 582.076 519.050 584.800 519.466 C 587.117 519.820 587.889 519.630 587.393 518.827 C 586.914 518.052 587.381 517.866 588.844 518.249 C 590.030 518.559 591.000 518.378 591.000 517.847 C 591.000 517.316 591.409 517.135 591.910 517.444 C 592.410 517.753 593.648 517.668 594.660 517.253 C 596.381 516.549 596.370 516.491 594.500 516.365 C 592.669 516.241 592.689 516.168 594.739 515.501 C 595.970 515.100 596.696 514.317 596.352 513.760 C 595.975 513.150 596.477 513.184 597.613 513.843 C 598.881 514.580 599.035 514.949 598.083 514.970 C 597.304 514.986 596.925 515.258 597.240 515.574 C 597.556 515.889 599.302 515.327 601.121 514.324 C 603.751 512.873 603.934 512.602 602.014 513.000 L 599.601 513.500 601.865 512.180 C 603.111 511.454 605.077 510.678 606.234 510.455 C 608.383 510.041 614.070 505.209 613.703 504.108 C 613.591 503.774 613.950 503.388 614.500 503.250 C 615.050 503.113 615.520 502.438 615.545 501.750 C 615.570 501.063 616.107 500.604 616.738 500.731 C 617.369 500.858 618.765 499.733 619.840 498.231 C 621.638 495.718 621.643 495.660 619.897 497.500 C 618.854 498.600 618.000 499.121 618.000 498.658 C 618.000 497.503 621.992 492.510 622.032 493.615 C 622.049 494.102 622.693 493.669 623.463 492.653 C 624.233 491.637 624.592 490.101 624.261 489.239 C 623.867 488.212 624.059 487.919 624.819 488.388 C 625.599 488.870 625.762 488.544 625.319 487.388 C 624.836 486.132 625.015 485.891 625.985 486.490 C 626.869 487.037 627.070 486.923 626.590 486.146 C 625.651 484.627 626.872 480.803 628.061 481.537 C 628.565 481.849 628.709 481.406 628.382 480.552 C 628.054 479.698 628.284 479.000 628.893 479.000 C 629.502 479.000 630.000 478.523 630.000 477.941 C 630.000 477.359 629.631 477.110 629.181 477.388 C 628.730 477.667 628.563 476.523 628.809 474.846 C 629.143 472.570 629.500 472.140 630.215 473.149 C 631.240 474.593 630.920 472.459 629.519 468.500 C 629.122 467.378 629.182 466.939 629.656 467.500 C 630.120 468.050 631.175 468.439 632.000 468.365 C 632.825 468.291 633.280 468.179 633.012 468.115 C 632.743 468.052 634.263 466.763 636.389 465.250 C 638.515 463.738 639.896 462.725 639.460 463.000 C 639.023 463.275 638.591 462.488 638.500 461.250 C 638.409 460.013 638.709 458.944 639.167 458.875 C 639.625 458.806 640.487 458.694 641.083 458.625 C 641.679 458.556 641.863 458.196 641.492 457.825 C 640.508 456.842 641.975 452.867 643.072 453.544 C 643.582 453.860 644.000 453.678 644.000 453.141 C 644.000 452.603 644.286 451.339 644.635 450.332 C 645.197 448.708 645.078 448.727 643.579 450.500 L 641.890 452.500 642.817 450.500 C 643.327 449.400 644.066 446.286 644.459 443.581 C 644.963 440.109 645.437 439.080 646.071 440.081 C 646.645 440.987 646.916 438.971 646.822 434.500 L 646.674 427.500 646.000 433.000 L 645.326 438.500 645.163 433.185 C 645.017 428.421 645.308 427.612 647.977 425.366 C 649.614 423.988 650.911 422.555 650.858 422.181 C 650.806 421.806 650.816 421.682 650.882 421.905 C 650.947 422.128 651.900 421.495 653.000 420.500 C 654.100 419.505 655.034 419.097 655.077 419.595 C 655.119 420.093 655.295 419.772 655.469 418.882 C 655.884 416.750 660.096 411.941 661.037 412.523 C 661.442 412.773 662.387 412.222 663.137 411.297 C 664.074 410.141 664.110 409.851 663.250 410.367 C 662.563 410.780 662.000 410.641 662.000 410.059 C 662.000 409.477 662.590 409.000 663.312 409.000 C 664.645 409.000 667.644 405.436 669.941 401.123 C 670.977 399.177 670.961 398.590 669.853 397.888 C 668.796 397.218 668.876 397.027 670.219 397.015 C 671.408 397.005 671.741 396.488 671.299 395.336 C 670.898 394.292 671.057 393.917 671.725 394.330 C 673.190 395.236 674.120 392.402 673.418 389.171 C 672.966 387.087 673.076 386.830 673.918 388.000 C 674.738 389.140 674.857 388.661 674.414 386.000 C 674.025 383.663 674.146 382.944 674.777 383.835 C 675.406 384.723 675.616 383.385 675.404 379.835 C 675.151 375.606 675.259 375.122 675.924 377.500 L 676.763 380.500 676.882 376.750 C 676.957 374.377 676.574 373.092 675.840 373.250 C 674.959 373.440 674.959 373.305 675.840 372.691 C 676.478 372.246 676.968 370.446 676.930 368.691 C 676.870 365.964 676.729 365.791 675.961 367.500 C 675.293 368.986 675.143 368.421 675.376 365.298 C 675.599 362.319 675.266 360.932 674.232 360.535 C 673.349 360.197 672.979 359.190 673.293 357.988 C 673.579 356.895 673.378 356.000 672.847 356.000 C 672.316 356.000 672.220 355.438 672.633 354.750 C 673.066 354.030 672.598 354.135 671.528 355.000 C 669.795 356.401 669.748 356.358 670.815 354.355 C 671.721 352.654 671.652 351.956 670.479 350.983 C 669.666 350.307 668.944 350.035 668.875 350.378 C 668.806 350.720 668.694 350.438 668.625 349.750 C 668.556 349.063 666.303 347.032 663.618 345.237 C 659.552 342.520 658.476 342.186 657.181 343.237 C 655.857 344.312 655.729 344.223 656.324 342.639 C 656.849 341.241 656.649 340.921 655.523 341.353 C 654.699 341.669 654.072 341.607 654.130 341.214 C 654.441 339.131 653.868 337.963 652.845 338.595 C 652.124 339.041 651.963 338.869 652.415 338.138 C 652.813 337.494 653.605 337.256 654.176 337.609 C 654.839 338.019 654.971 337.483 654.540 336.125 C 654.113 334.781 654.297 334.000 655.041 334.000 C 655.806 334.000 655.990 333.097 655.568 331.416 C 655.153 329.762 655.289 329.060 655.945 329.466 C 656.610 329.877 656.745 328.974 656.329 326.894 C 655.870 324.598 656.016 323.892 656.844 324.404 C 657.480 324.797 658.000 324.668 658.000 324.118 C 658.000 323.568 657.549 322.839 656.997 322.498 C 656.391 322.123 656.339 321.211 656.866 320.189 C 657.345 319.260 658.057 316.731 658.448 314.569 C 658.992 311.556 659.392 310.972 660.160 312.069 C 660.886 313.106 660.993 312.727 660.547 310.690 C 659.717 306.900 660.947 300.325 662.144 302.151 C 662.690 302.984 662.825 301.778 662.498 299.000 C 662.097 295.598 662.210 294.988 662.964 296.500 C 663.704 297.983 663.819 297.208 663.409 293.500 C 662.996 289.753 663.130 288.876 663.944 290.000 C 664.749 291.111 664.893 289.684 664.500 284.500 C 664.110 279.363 664.242 278.032 664.994 279.500 C 665.766 281.008 665.894 280.147 665.514 276.000 C 664.815 268.381 664.883 250.346 665.653 239.099 C 666.133 232.075 666.002 229.881 665.134 230.417 C 664.278 230.946 664.088 229.334 664.414 224.318 C 664.658 220.568 664.631 218.288 664.355 219.250 C 663.527 222.139 662.493 221.228 662.596 217.699 C 662.661 215.472 663.113 214.538 663.985 214.828 C 664.741 215.080 664.991 214.795 664.587 214.141 C 664.131 213.402 664.507 213.243 665.698 213.671 C 666.689 214.027 667.163 213.948 666.751 213.494 C 666.340 213.040 668.236 211.394 670.966 209.835 C 676.253 206.815 678.774 206.100 675.559 208.532 C 674.491 209.339 674.099 210.000 674.686 210.000 C 675.968 210.000 678.626 207.010 677.372 206.978 C 676.307 206.951 681.171 203.054 682.309 203.022 C 682.754 203.010 682.797 203.520 682.405 204.155 C 681.959 204.876 682.131 205.037 682.862 204.585 C 683.506 204.187 683.774 203.443 683.457 202.931 C 683.141 202.419 683.359 201.944 683.941 201.875 C 684.523 201.806 685.450 201.694 686.000 201.625 C 686.550 201.556 687.113 201.050 687.250 200.500 C 687.388 199.950 687.950 199.439 688.500 199.365 C 690.287 199.125 691.024 198.753 689.968 198.625 C 689.400 198.556 689.855 197.713 690.979 196.750 C 693.372 194.701 694.431 194.479 693.367 196.250 C 692.851 197.110 693.141 197.074 694.297 196.137 C 695.222 195.387 695.745 194.397 695.461 193.937 C 695.177 193.477 695.895 192.591 697.058 191.969 C 698.220 191.347 698.870 190.537 698.502 190.169 C 698.134 189.801 698.270 189.500 698.804 189.500 C 699.338 189.500 700.613 188.464 701.639 187.198 C 702.664 185.932 704.244 184.787 705.150 184.654 C 707.372 184.328 710.102 181.974 709.461 180.937 C 709.177 180.477 709.969 179.519 711.222 178.807 C 712.475 178.096 713.050 177.531 712.500 177.551 C 711.950 177.571 707.000 177.973 701.500 178.445 C 684.825 179.874 663.004 179.731 663.002 178.191 C 663.001 177.471 663.408 177.134 663.907 177.442 C 664.405 177.751 664.560 177.032 664.249 175.845 C 663.863 174.366 664.049 173.912 664.842 174.403 C 665.893 175.052 666.300 174.102 666.300 171.000 C 666.300 170.450 666.233 170.525 666.150 171.167 C 666.068 171.808 665.730 172.063 665.400 171.734 C 664.551 170.885 666.996 163.879 667.938 164.462 C 668.366 164.726 668.588 163.155 668.432 160.971 C 668.161 157.157 669.243 155.642 670.377 158.250 C 670.676 158.938 670.648 158.195 670.314 156.601 C 669.860 154.429 670.023 153.896 670.961 154.476 C 671.875 155.041 672.036 154.688 671.555 153.174 C 670.683 150.425 672.768 142.739 674.154 143.595 C 674.837 144.017 674.984 143.525 674.567 142.210 C 673.645 139.306 674.968 134.380 676.193 136.155 C 676.806 137.044 676.913 136.439 676.508 134.374 C 676.087 132.223 676.380 130.763 677.448 129.695 C 678.301 128.841 678.993 127.548 678.985 126.821 C 678.973 125.834 678.697 125.879 677.890 127.000 C 676.995 128.245 676.913 128.187 677.410 126.657 C 677.739 125.644 678.280 123.734 678.611 122.414 C 678.942 121.094 679.664 120.292 680.214 120.632 C 680.833 121.015 680.957 120.439 680.540 119.125 C 680.122 117.811 680.298 117.000 681.000 117.000 C 681.702 117.000 681.878 116.189 681.460 114.875 C 681.006 113.445 681.148 112.973 681.893 113.434 C 682.522 113.822 683.000 113.444 683.000 112.559 C 683.000 111.702 682.438 111.110 681.750 111.243 C 681.063 111.377 681.288 111.104 682.250 110.636 C 683.213 110.169 683.993 109.047 683.985 108.143 C 683.971 106.707 683.833 106.689 682.890 108.000 C 681.969 109.281 681.890 109.254 682.350 107.813 C 682.647 106.884 683.402 104.220 684.029 101.891 C 684.905 98.638 685.400 97.986 686.166 99.078 C 686.894 100.118 687.009 99.796 686.594 97.877 C 686.072 95.470 688.875 81.828 690.009 81.250 C 690.279 81.113 690.500 80.507 690.500 79.904 C 690.500 79.301 689.263 79.954 687.750 81.356 C 686.238 82.758 685.000 83.675 685.000 83.396 C 685.000 83.116 684.000 83.587 682.777 84.443 C 681.555 85.299 680.993 86.059 681.527 86.130 C 682.062 86.202 681.150 86.378 679.500 86.523 C 677.850 86.667 676.892 86.834 677.371 86.893 C 678.539 87.037 670.281 95.000 668.964 95.000 C 667.289 95.000 662.424 98.496 664.044 98.535 C 664.969 98.558 664.727 99.001 663.381 99.750 C 662.216 100.399 661.010 100.677 660.701 100.367 C 659.885 99.551 654.015 103.216 654.606 104.172 C 654.880 104.615 654.332 104.681 653.388 104.319 C 652.231 103.875 651.905 104.038 652.388 104.819 C 652.870 105.599 652.544 105.762 651.388 105.319 C 650.132 104.836 649.891 105.015 650.490 105.985 C 651.010 106.826 650.921 107.069 650.245 106.651 C 648.736 105.719 645.881 106.999 646.660 108.259 C 647.035 108.865 646.830 109.013 646.175 108.608 C 644.728 107.714 640.753 109.791 641.524 111.039 C 641.852 111.569 641.357 111.691 640.388 111.319 C 639.132 110.836 638.891 111.015 639.490 111.985 C 640.017 112.837 639.921 113.069 639.220 112.636 C 637.673 111.680 629.872 114.983 630.661 116.260 C 631.017 116.837 630.841 117.020 630.269 116.666 C 628.996 115.879 623.000 117.859 623.000 119.066 C 623.000 119.545 622.251 119.650 621.336 119.299 C 620.283 118.895 619.916 119.056 620.337 119.737 C 620.768 120.434 620.241 120.614 618.845 120.249 C 617.238 119.829 616.894 120.020 617.498 120.997 C 618.038 121.870 617.919 122.068 617.146 121.590 C 615.543 120.600 611.822 121.903 612.611 123.179 C 613.024 123.847 612.453 123.961 611.000 123.500 C 609.326 122.969 608.949 123.109 609.529 124.047 C 610.024 124.849 609.904 125.059 609.200 124.624 C 607.909 123.826 602.618 124.952 603.503 125.836 C 603.831 126.164 602.395 126.541 600.313 126.674 C 598.231 126.808 596.387 127.338 596.216 127.852 C 596.044 128.367 594.955 128.540 593.796 128.236 C 592.232 127.827 591.897 128.024 592.498 128.997 C 593.042 129.876 592.920 130.068 592.129 129.579 C 590.788 128.751 576.918 132.059 577.537 133.060 C 577.758 133.418 576.716 133.516 575.220 133.277 C 573.020 132.926 572.787 133.061 574.000 133.982 C 575.180 134.878 574.806 134.985 572.250 134.481 C 570.329 134.103 569.000 134.249 569.000 134.838 C 569.000 136.148 562.186 135.586 560.757 134.157 C 559.943 133.343 560.212 133.156 561.766 133.455 C 563.169 133.725 563.721 133.438 563.402 132.604 C 563.136 131.911 563.461 130.030 564.125 128.422 C 565.064 126.147 565.350 125.943 565.415 127.500 C 565.491 129.281 565.579 129.308 566.219 127.750 C 566.614 126.788 566.685 125.342 566.376 124.537 C 565.580 122.464 568.940 112.845 570.190 113.617 C 570.845 114.022 570.957 113.440 570.500 112.000 C 569.981 110.365 570.118 109.955 571.000 110.500 C 571.888 111.049 572.018 110.613 571.483 108.875 C 571.068 107.528 571.130 106.859 571.626 107.329 C 572.115 107.792 572.500 106.811 572.500 105.101 C 572.500 103.421 572.932 102.068 573.461 102.097 C 574.820 102.169 575.898 98.889 575.334 96.397 C 575.071 95.241 576.516 89.391 578.543 83.397 C 580.571 77.404 582.320 71.711 582.430 70.746 C 582.540 69.781 583.445 68.395 584.441 67.667 C 585.907 66.595 586.042 65.947 585.148 64.276 C 584.305 62.702 584.356 61.949 585.363 61.114 C 586.090 60.511 586.990 60.324 587.365 60.698 C 587.739 61.072 587.896 60.403 587.714 59.210 C 587.418 57.266 586.876 57.557 582.479 62.021 M 576.026 253.554 C 576.012 254.074 576.488 254.500 577.083 254.500 C 577.679 254.500 577.866 254.801 577.498 255.169 C 577.130 255.537 577.767 256.340 578.914 256.954 C 580.061 257.568 581.053 257.942 581.118 257.785 C 581.184 257.628 581.184 257.838 581.118 258.250 C 581.053 258.663 581.450 259.056 582.000 259.125 C 583.747 259.343 585.022 259.746 584.378 259.875 C 584.035 259.944 584.320 260.681 585.011 261.513 C 585.702 262.345 586.783 262.908 587.413 262.763 C 588.043 262.618 588.690 262.950 588.851 263.500 C 589.461 265.590 592.430 268.049 593.739 267.547 C 594.490 267.259 594.876 267.392 594.597 267.844 C 594.318 268.295 597.669 272.099 602.045 276.298 C 606.420 280.497 610.071 283.610 610.158 283.216 C 610.244 282.822 610.299 283.035 610.279 283.690 C 610.259 284.344 611.412 285.919 612.841 287.190 C 614.270 288.460 614.835 288.713 614.097 287.750 C 612.489 285.653 613.555 285.413 615.563 287.420 C 616.469 288.326 616.593 288.969 615.906 289.198 C 615.315 289.395 616.893 292.694 619.413 296.528 C 621.934 300.363 624.053 303.163 624.123 302.750 C 624.193 302.338 624.311 302.338 624.387 302.750 C 624.845 305.269 627.364 309.893 628.047 309.471 C 628.495 309.194 629.187 309.494 629.585 310.138 C 630.037 310.869 629.876 311.041 629.155 310.595 C 627.602 309.636 627.701 310.521 629.543 314.082 C 630.436 315.811 631.553 316.776 632.197 316.378 C 632.874 315.960 633.028 316.146 632.590 316.854 C 632.194 317.494 632.192 319.026 632.583 320.259 C 633.276 322.438 633.320 322.444 634.145 320.500 C 634.742 319.097 634.823 319.469 634.418 321.750 C 634.063 323.748 634.253 325.000 634.909 325.000 C 635.496 325.000 635.910 325.788 635.830 326.750 C 635.749 327.713 635.786 329.625 635.912 331.000 C 636.126 333.343 636.200 333.374 637.081 331.500 C 637.815 329.939 637.925 330.268 637.583 333.000 C 637.177 336.243 637.964 340.119 639.039 340.169 C 639.293 340.181 639.136 340.416 638.690 340.691 C 638.245 340.966 637.938 344.861 638.009 349.346 C 638.079 353.831 638.085 357.275 638.021 357.000 C 637.958 356.725 637.044 358.708 635.991 361.406 C 634.937 364.104 634.353 366.761 634.692 367.311 C 635.031 367.860 634.828 368.012 634.240 367.648 C 633.609 367.258 632.480 368.795 631.489 371.391 C 630.339 374.400 629.283 375.718 628.153 375.552 C 627.244 375.419 626.500 374.715 626.500 373.989 C 626.500 373.263 624.317 371.328 621.649 369.688 C 617.650 367.230 616.625 366.952 615.805 368.104 C 615.013 369.217 614.920 369.160 615.346 367.824 C 616.031 365.675 608.325 362.856 603.684 363.557 C 601.016 363.960 600.824 363.870 602.500 363.000 C 604.155 362.141 603.931 362.049 601.200 362.466 C 599.308 362.755 598.144 362.576 598.472 362.045 C 599.229 360.820 600.575 360.886 560.000 360.147 C 540.397 359.790 524.219 359.886 523.872 360.362 C 523.526 360.837 520.595 360.917 517.359 360.542 C 511.191 359.826 498.000 361.549 498.000 363.071 C 498.000 363.548 497.366 363.694 496.591 363.396 C 494.726 362.681 480.000 369.520 480.000 371.102 C 480.000 371.779 479.709 372.042 479.352 371.686 C 478.374 370.707 470.989 375.173 471.695 376.316 C 472.033 376.862 471.827 377.011 471.238 376.647 C 469.753 375.729 464.740 377.770 465.492 378.987 C 465.856 379.576 465.409 379.710 464.388 379.319 C 463.123 378.833 462.890 379.013 463.500 380.000 C 464.105 380.979 463.880 381.168 462.664 380.701 C 460.535 379.884 457.821 380.901 458.631 382.212 C 459.020 382.841 458.413 382.948 457.000 382.500 C 455.573 382.047 454.979 382.157 455.376 382.800 C 455.761 383.422 455.165 383.595 453.833 383.246 C 452.055 382.781 451.788 383.004 452.354 384.481 C 452.952 386.038 452.828 386.102 451.447 384.956 C 450.503 384.172 449.572 384.012 449.174 384.564 C 447.784 386.494 428.388 386.468 422.758 384.529 C 420.490 383.747 418.267 383.335 417.817 383.613 C 417.368 383.891 417.000 383.593 417.000 382.952 C 417.000 382.309 416.304 382.053 415.448 382.382 C 414.434 382.771 414.144 382.575 414.612 381.819 C 415.095 381.038 414.769 380.875 413.612 381.319 C 412.456 381.762 412.130 381.599 412.612 380.819 C 413.095 380.038 412.769 379.875 411.612 380.319 C 410.456 380.762 410.130 380.599 410.612 379.819 C 411.081 379.059 410.788 378.867 409.762 379.261 C 408.900 379.592 407.889 379.556 407.514 379.181 C 407.140 378.806 407.414 378.500 408.123 378.500 C 409.713 378.500 404.362 374.906 402.121 374.469 C 401.230 374.295 400.725 374.050 401.000 373.924 C 401.275 373.798 400.825 373.651 400.000 373.596 C 399.175 373.542 398.613 373.160 398.750 372.749 C 398.888 372.337 398.759 372.016 398.464 372.036 C 398.170 372.055 397.159 371.302 396.218 370.361 C 394.605 368.747 394.507 368.760 394.493 370.575 C 394.479 372.319 394.406 372.301 393.716 370.392 C 392.897 368.122 385.966 364.502 382.884 364.734 C 381.848 364.812 381.000 364.405 381.000 363.829 C 381.000 363.222 379.985 363.038 378.583 363.390 C 377.253 363.724 376.016 363.567 375.833 363.042 C 375.102 360.944 359.808 360.142 325.500 360.403 C 283.481 360.723 284.308 360.693 283.534 361.945 C 283.205 362.477 282.275 362.659 281.468 362.349 C 280.661 362.040 280.000 362.332 280.000 363.000 C 280.000 363.668 279.338 363.960 278.528 363.649 C 276.625 362.919 271.000 364.873 271.000 366.264 C 271.000 366.852 270.716 367.049 270.369 366.702 C 269.615 365.949 267.383 367.088 260.181 371.902 C 257.220 373.881 255.528 375.275 256.420 375.000 C 257.864 374.555 257.875 374.650 256.521 375.872 C 255.684 376.627 255.000 376.949 255.000 376.587 C 255.000 376.226 254.046 376.440 252.879 377.065 C 251.518 377.793 250.992 377.822 251.410 377.146 C 251.768 376.566 251.763 374.904 251.398 373.451 C 250.896 371.450 250.510 371.136 249.807 372.155 C 249.203 373.029 249.112 372.319 249.546 370.125 C 250.038 367.639 249.900 366.944 249.021 367.487 C 248.123 368.042 247.997 366.869 248.514 362.733 C 248.966 359.116 248.825 357.010 248.100 356.562 C 247.495 356.188 247.000 355.432 247.000 354.882 C 247.000 354.332 247.445 354.157 247.989 354.493 C 248.576 354.856 248.710 354.407 248.319 353.388 C 247.902 352.301 248.051 351.913 248.725 352.330 C 249.993 353.114 251.157 350.573 250.415 348.640 C 249.734 346.865 254.893 340.745 256.537 341.376 C 257.234 341.643 258.111 341.556 258.486 341.181 C 258.860 340.806 258.567 340.492 257.833 340.481 C 257.100 340.471 258.525 339.243 261.000 337.754 C 263.475 336.264 265.500 335.448 265.500 335.941 C 265.500 336.434 266.625 336.215 268.000 335.454 C 269.375 334.693 270.050 334.036 269.500 333.994 C 268.950 333.951 270.075 333.058 272.000 332.009 C 273.925 330.960 276.344 330.352 277.375 330.658 C 278.677 331.044 279.021 330.843 278.500 330.000 C 277.955 329.118 278.365 328.981 280.000 329.500 C 281.533 329.987 282.032 329.861 281.566 329.107 C 281.190 328.498 281.097 328.000 281.359 328.000 C 281.622 328.000 282.661 327.733 283.668 327.406 C 285.192 326.911 285.248 326.993 284.000 327.890 C 281.891 329.407 284.148 329.262 288.027 327.631 C 290.258 326.693 290.845 326.061 289.892 325.625 C 289.126 325.275 289.775 325.234 291.334 325.534 C 293.314 325.916 293.954 325.735 293.459 324.933 C 292.977 324.153 293.383 323.987 294.730 324.414 C 295.819 324.760 297.788 324.612 299.105 324.085 C 300.422 323.558 300.882 323.098 300.128 323.063 C 298.964 323.010 298.964 322.748 300.128 321.346 C 301.187 320.070 301.500 320.013 301.500 321.096 C 301.500 321.868 302.288 322.463 303.250 322.417 C 304.213 322.371 304.438 322.241 303.750 322.128 C 303.063 322.014 303.901 321.312 305.613 320.567 C 307.525 319.735 309.260 319.551 310.113 320.091 C 310.876 320.574 312.175 320.969 313.000 320.969 C 314.200 320.969 314.233 320.800 313.169 320.126 C 311.378 318.990 317.267 317.809 320.848 318.586 C 322.594 318.965 323.060 318.850 322.212 318.248 C 320.563 317.079 330.422 314.794 334.000 315.517 C 335.375 315.795 335.874 315.733 335.108 315.380 C 334.140 314.934 334.639 314.351 336.751 313.463 C 338.597 312.686 340.147 312.547 340.706 313.106 C 341.211 313.611 343.096 313.731 344.893 313.371 C 347.277 312.895 347.801 312.469 346.831 311.798 C 345.972 311.205 346.741 311.099 349.000 311.500 C 351.287 311.906 352.034 311.799 351.155 311.193 C 349.311 309.920 354.037 308.752 357.750 309.562 C 359.632 309.972 360.076 309.862 359.155 309.213 C 357.389 307.967 362.281 306.637 365.210 307.567 C 366.607 308.010 367.027 307.852 366.541 307.067 C 366.042 306.259 366.670 306.103 368.666 306.541 C 370.944 307.040 371.206 306.934 370.000 306.000 C 368.794 305.066 369.056 304.960 371.334 305.459 C 373.014 305.827 373.930 305.695 373.583 305.134 C 373.262 304.614 375.104 303.471 377.677 302.594 C 384.138 300.393 385.652 300.730 379.500 303.000 C 376.750 304.015 375.175 304.845 376.000 304.845 C 377.660 304.845 387.989 301.201 386.679 301.078 C 386.227 301.035 386.483 300.374 387.248 299.609 C 388.222 298.635 389.154 298.507 390.356 299.179 C 392.621 300.447 407.756 296.134 405.800 294.779 C 404.983 294.214 405.802 294.110 408.000 294.500 C 410.747 294.988 411.177 294.876 410.000 293.980 C 408.779 293.050 408.964 292.927 411.000 293.318 C 413.360 293.771 421.629 291.427 419.500 290.909 C 418.950 290.775 419.625 290.591 421.000 290.500 C 424.925 290.241 426.757 289.668 424.000 289.562 C 422.356 289.498 423.383 288.894 427.000 287.796 C 434.236 285.600 439.280 284.601 436.500 285.914 C 435.169 286.543 435.002 286.868 436.000 286.885 C 436.825 286.898 438.850 286.260 440.500 285.465 C 442.426 284.537 442.694 284.219 441.250 284.577 C 440.013 284.884 439.000 284.750 439.000 284.280 C 439.000 283.810 439.857 283.361 440.905 283.282 C 441.952 283.203 444.741 282.206 447.101 281.065 C 453.003 278.214 454.387 280.056 448.840 283.380 C 446.453 284.811 444.838 285.985 445.250 285.991 C 445.663 285.996 445.888 285.924 445.750 285.831 C 444.851 285.223 441.075 288.313 441.627 289.205 C 442.038 289.871 441.851 290.026 441.155 289.595 C 440.520 289.203 440.000 289.385 440.000 290.000 C 440.000 290.615 439.634 290.892 439.188 290.616 C 438.741 290.340 437.053 290.985 435.438 292.050 C 433.822 293.115 432.950 294.024 433.500 294.070 C 434.050 294.116 433.794 294.292 432.932 294.461 C 430.973 294.847 421.152 300.955 422.450 300.981 C 422.973 300.991 422.794 301.563 422.053 302.250 C 420.976 303.250 420.848 303.250 421.412 302.250 C 422.274 300.724 421.499 300.662 418.906 302.050 C 417.827 302.628 417.205 303.523 417.524 304.039 C 417.852 304.569 417.357 304.691 416.388 304.319 C 415.301 303.902 414.913 304.051 415.330 304.725 C 416.009 305.824 413.644 307.316 411.000 307.457 C 408.116 307.610 402.000 310.164 402.000 311.215 C 402.000 311.923 404.578 312.076 409.750 311.675 C 414.492 311.307 416.724 311.412 415.500 311.947 C 414.212 312.509 417.134 312.775 423.712 312.695 C 429.587 312.624 433.409 312.212 432.712 311.727 C 432.025 311.249 433.884 311.110 437.000 311.406 C 441.085 311.795 441.857 311.688 440.000 310.990 C 438.145 310.294 439.048 310.170 443.500 310.509 C 447.856 310.841 448.952 310.698 447.500 309.987 C 446.015 309.259 446.660 309.150 450.000 309.562 C 452.862 309.916 454.018 309.785 453.175 309.204 C 451.471 308.027 462.935 305.654 465.523 306.647 C 466.713 307.104 467.096 306.965 466.648 306.239 C 466.274 305.634 466.394 304.875 466.915 304.553 C 467.436 304.231 468.144 304.425 468.490 304.984 C 468.835 305.543 469.654 305.993 470.309 305.985 C 471.089 305.975 471.023 305.667 470.117 305.093 C 469.102 304.451 469.588 304.030 471.938 303.514 C 473.701 303.126 475.411 303.078 475.738 303.405 C 476.066 303.732 475.283 304.000 474.000 304.000 C 472.717 304.000 471.954 304.287 472.305 304.638 C 472.656 304.989 475.011 304.697 477.539 303.989 C 480.851 303.062 481.767 302.441 480.818 301.770 C 479.929 301.142 480.370 301.027 482.171 301.418 C 483.639 301.737 485.664 301.661 486.671 301.249 C 488.185 300.629 488.070 300.500 486.000 300.500 C 484.257 300.500 484.989 299.971 488.420 298.753 C 491.125 297.792 493.563 297.230 493.836 297.503 C 494.110 297.776 493.733 298.000 493.000 298.000 C 492.267 298.000 491.910 298.243 492.207 298.540 C 492.504 298.837 496.214 297.702 500.453 296.019 C 508.493 292.825 518.073 288.127 516.710 288.047 C 516.276 288.021 514.156 288.900 512.000 290.000 C 509.844 291.100 507.724 291.965 507.290 291.923 C 506.855 291.881 509.200 290.546 512.500 288.957 C 515.800 287.367 518.391 286.490 518.258 287.008 C 518.125 287.527 519.120 287.447 520.477 286.828 C 521.830 286.212 522.729 285.370 522.474 284.959 C 522.220 284.547 522.707 283.943 523.558 283.616 C 524.520 283.247 524.850 283.434 524.431 284.111 C 524.043 284.739 524.761 284.644 526.129 283.885 C 527.588 283.076 527.923 282.556 527.000 282.531 C 526.175 282.509 527.975 280.925 531.000 279.011 C 537.731 274.752 539.895 274.339 533.677 278.500 L 529.195 281.500 533.283 279.430 C 535.531 278.291 537.850 276.491 538.435 275.430 C 539.842 272.880 541.228 271.921 542.718 272.467 C 543.388 272.712 544.245 272.413 544.622 271.802 C 545.038 271.129 544.854 270.972 544.155 271.405 C 543.520 271.797 543.000 271.641 543.000 271.059 C 543.000 269.489 546.984 268.936 547.028 270.500 C 547.044 271.050 547.321 270.488 547.645 269.250 C 547.968 268.013 548.657 267.000 549.176 267.000 C 549.694 267.000 549.780 267.563 549.367 268.250 C 548.952 268.942 549.405 268.830 550.382 268.000 C 551.354 267.175 551.681 266.607 551.110 266.738 C 550.539 266.869 550.333 266.295 550.653 265.462 C 551.063 264.394 551.594 264.248 552.460 264.966 C 553.342 265.699 554.779 264.980 557.593 262.397 C 560.671 259.571 560.784 259.370 558.123 261.448 C 556.266 262.898 554.276 264.178 553.701 264.292 C 553.126 264.407 555.232 262.516 558.380 260.091 C 561.994 257.307 563.676 255.418 562.945 254.966 C 562.108 254.449 562.093 254.060 562.893 253.566 C 563.502 253.190 564.000 253.367 564.000 253.961 C 564.000 255.250 568.860 254.540 570.370 253.030 C 571.612 251.788 576.064 252.200 576.026 253.554 M 354.000 389.083 C 352.059 389.770 352.494 389.874 355.948 389.552 C 358.394 389.324 359.865 389.465 359.217 389.866 C 358.526 390.293 359.975 391.113 362.716 391.846 C 365.289 392.535 370.118 394.926 373.447 397.160 C 376.776 399.394 380.072 401.312 380.772 401.423 C 381.471 401.533 381.733 401.933 381.355 402.312 C 380.976 402.690 381.192 403.000 381.833 403.000 C 382.475 403.000 383.000 403.434 383.000 403.965 C 383.000 405.014 388.924 414.677 389.118 413.946 C 389.184 413.701 389.207 413.768 389.170 414.096 C 389.133 414.423 389.755 416.857 390.551 419.505 C 392.558 426.174 392.586 458.087 390.590 463.746 C 389.814 465.944 389.210 468.363 389.247 469.122 C 389.285 469.880 389.244 470.117 389.158 469.650 C 389.071 469.182 387.447 471.108 385.548 473.929 C 383.649 476.750 382.637 478.734 383.298 478.338 C 384.025 477.901 383.958 478.285 383.128 479.308 C 382.373 480.239 381.190 481.000 380.500 481.000 C 379.810 481.000 378.664 481.700 377.953 482.556 C 377.243 483.412 377.075 484.034 377.581 483.938 C 378.086 483.842 378.388 483.873 378.250 484.007 C 378.113 484.140 377.663 484.310 377.250 484.383 C 374.881 484.802 369.036 488.249 369.478 488.965 C 369.767 489.432 369.032 489.560 367.845 489.249 C 366.377 488.865 365.914 489.051 366.396 489.831 C 366.836 490.544 366.581 490.777 365.721 490.446 C 364.960 490.155 362.127 490.411 359.424 491.017 C 355.317 491.937 308.997 492.357 298.937 491.565 C 297.527 491.454 293.252 489.903 289.437 488.117 C 285.622 486.332 282.345 484.944 282.157 485.033 C 281.968 485.122 280.476 483.914 278.841 482.348 C 277.206 480.781 276.441 479.500 277.140 479.500 C 277.840 479.500 277.082 478.612 275.456 477.526 C 273.830 476.440 273.026 475.540 273.669 475.526 C 274.506 475.507 274.445 474.789 273.454 473.000 C 272.693 471.625 272.048 470.950 272.020 471.500 C 271.992 472.050 271.521 471.825 270.974 471.000 C 270.427 470.175 270.185 467.700 270.437 465.500 C 270.689 463.300 270.644 462.374 270.337 463.442 C 270.031 464.509 269.768 455.059 269.754 442.442 C 269.740 429.824 269.956 420.175 270.235 421.000 C 270.514 421.825 270.587 421.267 270.398 419.761 C 269.972 416.367 270.878 413.806 272.212 414.631 C 272.833 415.015 272.958 414.442 272.540 413.125 C 272.124 411.817 272.298 411.000 272.992 411.000 C 273.611 411.000 273.848 410.563 273.517 410.028 C 273.187 409.494 273.723 407.826 274.708 406.322 C 275.694 404.818 276.556 404.131 276.625 404.794 C 276.782 406.311 277.060 405.984 277.483 403.785 C 278.009 401.052 285.017 395.036 291.000 392.183 C 294.897 390.324 297.957 389.599 301.500 389.694 C 305.038 389.790 305.915 389.583 304.500 388.985 C 303.347 388.498 313.932 388.153 329.500 388.170 C 346.390 388.188 355.564 388.530 354.000 389.083 M 575.638 388.873 C 574.221 389.430 574.939 389.874 578.638 390.732 C 581.312 391.352 584.288 392.164 585.250 392.537 C 586.521 393.028 587.022 392.705 587.079 391.357 C 587.132 390.120 587.339 389.955 587.700 390.863 C 588.158 392.014 588.377 392.014 589.106 390.863 C 589.681 389.956 589.974 389.898 589.985 390.691 C 589.993 391.346 589.533 392.170 588.963 392.523 C 588.002 393.117 595.035 398.985 596.741 399.012 C 597.159 399.019 598.517 400.594 599.759 402.512 C 601.002 404.431 602.491 406.000 603.068 406.000 C 603.646 406.000 603.840 406.450 603.500 407.000 C 603.160 407.550 603.385 408.000 604.000 408.000 C 604.615 408.000 604.856 408.423 604.537 408.940 C 604.217 409.458 604.978 410.874 606.228 412.087 C 607.478 413.301 607.951 413.985 607.280 413.607 C 606.398 413.110 606.468 414.074 607.530 417.085 C 608.339 419.377 609.000 422.571 609.000 424.185 C 609.000 425.798 609.431 426.852 609.957 426.527 C 610.536 426.169 610.745 427.823 610.486 430.718 C 610.251 433.348 609.830 439.936 609.549 445.357 C 608.671 462.333 605.291 472.475 597.802 480.599 C 595.571 483.020 594.028 485.000 594.373 485.000 C 594.718 485.000 594.770 484.991 594.490 484.980 C 593.210 484.929 588.000 488.152 588.000 488.994 C 588.000 489.513 587.213 489.655 586.250 489.309 C 585.288 488.964 584.826 489.041 585.224 489.481 C 585.621 489.921 584.046 490.451 581.724 490.659 C 579.401 490.867 577.388 491.367 577.251 491.769 C 576.991 492.535 518.703 491.521 513.500 490.659 C 511.850 490.386 510.950 490.108 511.500 490.042 C 512.050 489.976 510.925 489.239 509.000 488.404 C 507.075 487.569 505.500 486.929 505.500 486.980 C 505.500 487.032 502.450 484.098 498.722 480.461 C 494.995 476.824 492.370 474.111 492.890 474.432 C 493.409 474.753 492.884 472.766 491.722 470.015 C 490.560 467.265 489.306 465.506 488.934 466.106 C 488.563 466.707 487.989 465.691 487.658 463.849 C 486.927 459.782 486.576 418.090 487.267 417.400 C 487.537 417.130 487.832 421.299 487.923 426.665 C 488.013 432.031 488.319 436.652 488.601 436.934 C 488.883 437.216 489.022 431.780 488.910 424.853 C 488.751 415.071 489.037 411.785 490.192 410.136 C 491.010 408.968 491.940 408.273 492.259 408.592 C 492.993 409.326 495.417 405.025 495.465 402.905 C 495.484 402.027 496.199 401.412 497.053 401.537 C 497.906 401.663 500.156 400.278 502.053 398.460 C 504.562 396.054 504.752 395.697 502.750 397.150 C 501.238 398.247 500.000 398.711 500.000 398.180 C 500.000 397.648 500.704 396.944 501.563 396.614 C 502.423 396.284 502.866 395.592 502.547 395.076 C 502.228 394.560 502.494 393.813 503.138 393.415 C 503.923 392.930 504.039 393.128 503.490 394.015 C 502.869 395.020 503.133 395.147 504.586 394.541 C 505.639 394.101 507.400 393.613 508.500 393.454 C 509.600 393.296 510.050 393.115 509.500 393.053 C 508.950 392.990 509.297 392.475 510.270 391.909 C 511.244 391.342 512.988 391.179 514.145 391.546 C 515.654 392.025 516.038 391.870 515.500 391.000 C 514.955 390.118 515.365 389.981 517.000 390.500 C 518.634 391.019 519.045 390.882 518.500 390.000 C 517.941 389.095 518.609 388.956 521.125 389.454 C 523.619 389.947 524.108 389.848 523.000 389.076 C 521.942 388.339 529.748 388.047 549.500 388.086 C 564.900 388.116 576.662 388.470 575.638 388.873 "/></g>
<g fill="#1D1B1CFF" stroke="#1D1B1CFF">
<path d="M 243.500 549.024 L 299.500 549.574 238.250 549.537 C 177.628 549.500 177.000 549.521 177.079 551.500 C 177.122 552.600 177.385 552.938 177.662 552.250 C 177.940 551.563 178.649 551.000 179.238 551.000 C 179.828 551.000 179.579 551.808 178.685 552.795 C 177.202 554.434 177.057 567.153 177.022 699.045 L 176.984 843.500 188.242 843.196 C 194.434 843.028 202.484 842.553 206.131 842.141 C 213.231 841.337 219.140 842.278 213.500 843.315 C 211.850 843.618 213.875 843.670 218.000 843.431 C 223.420 843.116 225.084 843.287 224.000 844.046 C 222.921 844.801 224.747 844.958 230.500 844.604 C 236.031 844.265 237.728 844.398 236.000 845.037 C 234.195 845.703 235.308 845.835 240.000 845.510 C 244.518 845.197 245.890 845.346 244.500 846.000 C 243.142 846.639 244.505 846.748 248.750 846.341 C 252.985 845.935 255.000 846.096 255.000 846.839 C 255.000 847.453 255.735 847.655 256.664 847.299 C 257.861 846.839 258.102 847.026 257.523 847.963 C 256.882 849.000 257.921 849.150 262.609 848.698 C 265.849 848.385 267.600 848.387 266.500 848.702 C 264.328 849.324 285.746 854.956 292.207 855.463 C 294.246 855.622 295.684 855.983 295.403 856.264 C 294.917 856.749 304.673 859.554 306.250 859.382 C 306.663 859.337 306.550 859.233 306.000 859.150 C 305.450 859.068 305.000 858.589 305.000 858.087 C 305.000 857.585 306.688 858.051 308.750 859.123 C 311.314 860.455 311.709 860.887 310.000 860.488 C 307.870 859.991 307.762 860.068 309.270 861.013 C 310.244 861.623 311.988 861.821 313.145 861.454 C 314.654 860.975 315.038 861.130 314.500 862.000 C 313.955 862.882 314.365 863.019 316.000 862.500 C 317.384 862.061 318.017 862.163 317.645 862.766 C 317.105 863.639 327.988 868.455 330.500 868.454 C 331.050 868.454 330.488 868.097 329.250 867.660 C 328.013 867.223 327.000 866.390 327.000 865.810 C 327.000 865.162 327.588 865.243 328.524 866.020 C 329.362 866.716 330.375 866.958 330.774 866.559 C 331.173 866.160 331.556 866.321 331.625 866.917 C 331.694 867.512 331.806 868.408 331.875 868.906 C 332.064 870.276 345.051 876.087 346.257 875.341 C 346.872 874.961 347.013 875.170 346.595 875.845 C 346.203 876.481 346.470 877.068 347.191 877.152 C 349.169 877.382 350.500 877.738 350.500 878.037 C 350.500 878.184 350.950 878.409 351.500 878.537 C 353.636 879.033 353.953 879.256 352.750 879.417 C 352.063 879.509 352.949 880.357 354.720 881.302 C 356.491 882.247 358.291 882.962 358.720 882.892 C 359.149 882.821 359.275 882.819 359.000 882.888 C 358.725 882.957 359.850 883.903 361.500 884.991 C 363.496 886.306 364.512 886.555 364.535 885.734 C 364.555 885.055 365.099 885.449 365.745 886.608 C 367.596 889.933 371.862 892.359 373.487 891.011 C 374.509 890.163 374.793 890.207 374.648 891.194 C 374.542 891.912 374.169 892.555 373.819 892.621 C 372.838 892.808 382.183 899.193 383.945 899.541 C 385.974 899.940 386.276 900.220 384.846 900.375 C 384.120 900.454 384.246 900.959 385.188 901.741 C 386.011 902.424 386.950 902.716 387.275 902.391 C 387.601 902.066 388.459 902.175 389.183 902.635 C 390.231 903.299 390.199 903.472 389.024 903.485 C 388.143 903.494 388.746 904.438 390.524 905.832 C 392.161 907.114 398.092 912.423 403.705 917.630 C 409.318 922.837 414.225 926.962 414.610 926.798 C 414.995 926.634 415.431 927.327 415.579 928.338 C 415.901 930.534 419.074 934.259 419.911 933.423 C 420.235 933.099 420.501 933.208 420.502 933.667 C 420.505 935.252 425.156 941.021 426.007 940.495 C 426.477 940.205 427.149 940.432 427.500 941.000 C 427.851 941.568 428.627 941.731 429.224 941.362 C 429.877 940.958 430.021 941.157 429.585 941.862 C 429.187 942.506 428.490 942.803 428.036 942.522 C 427.581 942.241 426.914 942.783 426.552 943.725 C 426.190 944.668 426.224 945.109 426.628 944.706 C 427.031 944.302 428.588 945.147 430.087 946.584 C 431.586 948.020 433.080 949.151 433.407 949.098 C 433.733 949.044 433.720 949.000 433.378 949.000 C 433.035 949.000 433.315 949.675 434.000 950.500 C 434.685 951.325 435.752 951.993 436.372 951.985 C 436.993 951.976 436.825 951.533 436.000 951.000 C 434.765 950.202 434.750 950.028 435.917 950.015 C 436.696 950.007 437.036 949.703 436.673 949.340 C 436.310 948.977 437.022 947.986 438.256 947.137 C 440.413 945.655 440.442 945.671 439.000 947.548 C 437.603 949.366 437.623 949.403 439.292 948.092 C 440.580 947.082 440.779 946.379 440.001 945.601 C 439.223 944.823 439.309 944.515 440.306 944.509 C 441.730 944.500 450.000 937.534 450.000 936.344 C 450.000 935.981 448.071 937.442 445.714 939.592 C 442.528 942.497 442.891 941.918 447.130 937.332 C 450.265 933.940 453.094 931.427 453.415 931.749 C 453.737 932.070 454.000 931.653 454.000 930.822 C 454.000 929.330 456.792 926.210 458.250 926.071 C 458.663 926.032 458.743 926.000 458.429 926.000 C 458.114 926.000 458.456 925.401 459.188 924.670 C 459.919 923.938 461.000 923.500 461.589 923.696 C 462.722 924.074 473.000 913.747 473.000 912.229 C 473.000 911.740 475.138 909.850 477.750 908.030 L 482.500 904.722 479.000 908.200 L 475.500 911.678 479.294 908.675 C 481.380 907.022 482.871 905.107 482.607 904.418 C 482.343 903.729 482.810 902.903 483.645 902.583 C 485.859 901.733 486.207 901.857 485.378 903.197 C 484.972 903.855 486.070 903.374 487.819 902.129 C 489.569 900.883 491.000 899.316 491.000 898.648 C 491.000 897.271 496.691 893.561 499.051 893.399 C 501.151 893.254 508.721 888.168 509.376 886.462 C 509.666 885.708 511.772 884.137 514.056 882.972 C 516.340 881.806 517.888 881.373 517.494 882.009 C 517.101 882.645 518.276 882.341 520.104 881.333 C 522.735 879.882 522.925 879.604 521.014 880.000 L 518.601 880.500 520.821 879.204 C 522.042 878.491 523.463 878.168 523.979 878.487 C 524.494 878.806 528.423 877.274 532.708 875.083 C 536.994 872.892 540.133 871.077 539.684 871.050 C 539.236 871.022 537.941 871.496 536.807 872.103 C 535.224 872.951 534.552 872.893 533.909 871.853 C 533.287 870.846 533.766 870.487 535.786 870.451 C 537.279 870.424 539.625 870.057 541.000 869.635 C 542.989 869.026 543.193 869.103 542.000 870.011 C 540.163 871.408 539.601 871.590 555.953 865.500 C 563.337 862.750 568.281 860.500 566.939 860.500 C 565.302 860.500 566.120 859.925 569.428 858.750 C 575.099 856.736 576.105 856.595 574.000 858.110 C 572.682 859.058 572.689 859.129 574.053 858.701 C 574.907 858.433 578.424 857.423 581.869 856.457 C 586.252 855.227 587.737 854.426 586.816 853.789 C 585.964 853.200 586.579 853.090 588.561 853.477 C 590.244 853.806 592.719 853.637 594.061 853.101 C 595.476 852.536 595.870 852.064 595.000 851.977 C 594.175 851.895 594.850 851.421 596.500 850.924 C 598.150 850.428 601.075 850.246 603.000 850.521 C 605.785 850.919 606.091 850.819 604.500 850.030 C 602.999 849.286 603.747 849.153 607.500 849.495 C 611.424 849.854 611.962 849.746 610.000 848.994 C 608.076 848.257 608.768 848.139 613.000 848.483 C 617.020 848.809 617.962 848.667 616.500 847.957 C 615.046 847.250 615.865 847.134 619.500 847.533 C 623.168 847.936 624.100 847.801 623.000 847.027 C 621.892 846.247 622.675 846.110 626.000 846.502 C 629.409 846.904 630.015 846.791 628.500 846.033 C 627.031 845.299 628.094 845.163 632.500 845.523 C 636.914 845.883 637.971 845.747 636.500 845.010 C 635.041 844.279 636.260 844.141 641.000 844.500 C 645.490 844.840 646.882 844.701 645.500 844.051 C 644.123 843.402 645.835 843.238 651.000 843.523 C 655.125 843.750 657.600 843.632 656.500 843.260 C 655.400 842.889 663.630 842.730 674.789 842.908 L 695.078 843.232 694.555 797.866 C 694.268 772.915 693.894 712.000 693.725 662.500 C 693.556 613.000 693.685 591.175 694.011 614.000 L 694.605 655.500 694.626 603.145 C 694.644 559.669 694.411 550.554 693.252 549.395 C 692.084 548.227 680.523 548.011 622.179 548.070 C 582.772 548.110 553.369 548.511 554.500 548.993 C 555.689 549.500 553.155 549.615 548.250 549.275 C 542.500 548.877 540.000 549.042 540.000 549.820 C 540.000 550.435 539.328 550.680 538.508 550.365 C 535.641 549.265 505.604 555.551 506.535 557.056 C 506.792 557.473 506.032 557.560 504.845 557.249 C 503.238 556.829 502.894 557.020 503.498 557.997 C 504.040 558.874 503.920 559.068 503.135 558.583 C 501.686 557.688 495.000 559.787 495.000 561.137 C 495.000 561.676 494.591 561.865 494.090 561.556 C 492.806 560.762 489.899 562.027 490.558 563.093 C 490.858 563.579 490.417 563.713 489.577 563.391 C 487.755 562.692 480.745 566.779 481.546 568.074 C 481.853 568.571 481.332 568.681 480.388 568.319 C 479.132 567.836 478.891 568.015 479.490 568.985 C 480.035 569.865 479.923 570.070 479.156 569.597 C 478.522 569.205 477.003 569.585 475.779 570.442 C 474.556 571.299 473.768 572.052 474.027 572.115 C 474.287 572.179 473.826 572.291 473.003 572.365 C 472.179 572.439 471.504 573.100 471.503 573.833 C 471.501 574.567 471.163 574.829 470.750 574.417 C 470.338 574.004 470.000 574.218 470.000 574.892 C 470.000 575.566 469.601 575.871 469.113 575.570 C 468.626 575.269 467.671 575.692 466.991 576.511 C 466.311 577.330 465.923 578.053 466.128 578.118 C 466.332 578.184 466.122 578.170 465.659 578.088 C 464.024 577.799 448.817 593.895 449.572 595.116 C 450.025 595.850 449.884 596.046 449.205 595.627 C 448.313 595.075 445.223 598.851 445.831 599.750 C 445.924 599.888 446.000 599.675 446.000 599.277 C 446.000 598.880 445.299 599.556 444.442 600.779 C 443.585 602.003 443.205 603.522 443.597 604.156 C 444.021 604.842 443.871 605.038 443.227 604.640 C 441.916 603.830 440.579 607.510 441.590 609.146 C 442.012 609.828 441.875 610.041 441.259 609.660 C 439.868 608.801 438.803 611.737 439.543 614.391 C 439.958 615.878 439.856 616.103 439.198 615.155 C 438.496 614.143 438.094 614.515 437.577 616.655 C 435.559 625.003 434.819 627.006 433.951 626.469 C 433.347 626.097 433.365 625.187 433.997 624.005 C 435.351 621.476 435.264 619.719 433.830 620.605 C 433.047 621.089 432.868 620.787 433.288 619.692 C 434.132 617.492 432.088 611.828 430.748 612.656 C 430.125 613.041 429.986 612.831 430.410 612.146 C 431.421 610.510 430.084 606.830 428.773 607.640 C 428.136 608.034 427.979 607.843 428.392 607.175 C 429.341 605.639 427.283 602.000 425.465 602.000 C 424.659 602.000 424.000 601.550 424.000 601.000 C 424.000 600.450 424.452 600.112 425.004 600.250 C 425.556 600.388 425.431 599.687 424.727 598.694 C 424.022 597.701 422.558 596.723 421.473 596.521 C 419.540 596.160 419.749 595.911 422.250 595.590 C 422.938 595.501 422.375 594.787 421.000 594.002 C 419.625 593.217 418.163 592.671 417.750 592.788 C 417.338 592.904 417.000 592.550 417.000 592.000 C 417.000 590.637 418.303 590.744 420.047 592.250 C 420.843 592.938 420.002 591.871 418.178 589.881 C 415.513 586.973 414.139 586.264 411.181 586.271 C 408.680 586.277 408.059 586.041 409.244 585.535 C 410.855 584.847 410.818 584.553 408.745 581.645 C 407.512 579.915 406.502 579.155 406.502 579.956 C 406.501 580.779 405.631 580.189 404.500 578.598 C 403.400 577.050 402.725 576.470 403.000 577.309 C 403.667 579.344 401.539 578.002 400.767 575.902 C 400.444 575.023 398.537 573.334 396.529 572.150 C 394.522 570.966 393.155 570.442 393.492 570.987 C 393.856 571.576 393.409 571.710 392.388 571.319 C 391.132 570.836 390.891 571.015 391.490 571.985 C 392.039 572.872 391.923 573.070 391.138 572.585 C 390.494 572.187 390.274 571.366 390.648 570.761 C 391.090 570.046 390.727 569.891 389.612 570.319 C 388.568 570.719 388.142 570.579 388.523 569.962 C 388.869 569.404 389.904 569.071 390.825 569.223 C 391.746 569.376 391.095 568.730 389.377 567.790 C 387.659 566.849 386.001 566.332 385.693 566.640 C 385.385 566.948 384.541 566.825 383.817 566.365 C 382.770 565.702 382.808 565.509 384.000 565.425 C 384.825 565.367 383.793 564.558 381.706 563.628 C 379.619 562.698 377.412 562.245 376.801 562.623 C 376.082 563.068 375.976 562.848 376.502 561.997 C 377.106 561.020 376.762 560.829 375.155 561.249 C 373.968 561.560 373.217 561.458 373.485 561.024 C 373.929 560.305 365.762 556.934 360.250 555.561 C 359.013 555.252 357.089 554.741 355.975 554.425 C 354.698 554.062 354.051 554.286 354.225 555.032 C 354.376 555.682 353.687 555.433 352.693 554.479 C 351.573 553.403 349.102 552.681 346.193 552.579 C 343.612 552.489 342.175 552.138 343.000 551.799 C 343.825 551.461 342.700 551.404 340.500 551.674 C 337.321 552.065 336.808 551.926 338.000 550.999 C 339.202 550.064 338.854 549.943 336.250 550.391 C 334.348 550.718 333.000 550.528 333.000 549.933 C 333.000 549.287 330.178 549.107 325.250 549.440 C 320.158 549.784 318.357 549.661 320.000 549.082 C 321.483 548.558 295.038 548.255 255.000 548.337 L 187.500 548.475 243.500 549.024 M 260.000 567.016 C 260.000 567.674 264.484 567.871 272.750 567.575 C 281.466 567.262 284.234 567.397 281.500 567.999 C 278.552 568.649 280.130 568.779 287.500 568.491 C 294.365 568.223 296.873 568.402 295.500 569.063 C 294.107 569.732 295.426 569.850 299.846 569.451 C 304.623 569.021 306.010 569.174 305.455 570.072 C 304.899 570.973 306.164 571.100 310.609 570.589 C 314.892 570.097 316.091 570.202 315.000 570.976 C 313.890 571.764 314.799 571.908 318.500 571.530 C 321.625 571.212 322.760 571.332 321.526 571.852 C 320.010 572.490 320.822 572.846 325.026 573.387 C 328.037 573.774 334.247 574.970 338.827 576.045 C 343.407 577.120 348.357 577.738 349.827 577.419 C 351.580 577.038 352.058 577.152 351.214 577.750 C 349.627 578.876 357.435 581.467 359.175 580.392 C 359.870 579.962 360.033 580.138 359.595 580.845 C 358.948 581.893 359.902 582.300 363.000 582.300 C 363.667 582.300 363.667 582.200 363.000 582.000 C 362.333 581.800 362.333 581.700 363.000 581.700 C 365.326 581.700 366.085 582.054 365.565 582.895 C 364.808 584.120 367.620 585.083 369.664 584.299 C 370.685 583.907 371.080 584.061 370.687 584.697 C 370.323 585.287 372.513 586.840 375.773 588.302 C 378.923 589.715 381.381 590.431 381.236 589.893 C 381.090 589.355 381.990 589.480 383.236 590.172 C 384.691 590.980 384.964 591.447 384.000 591.480 C 382.873 591.518 382.811 591.728 383.750 592.324 C 384.438 592.761 385.520 592.797 386.155 592.405 C 386.832 591.986 387.039 592.128 386.656 592.748 C 386.019 593.778 392.009 597.939 395.000 598.544 C 395.825 598.711 396.213 598.881 395.863 598.923 C 395.513 598.966 398.550 602.324 402.613 606.387 C 406.676 610.450 410.000 613.500 410.000 613.165 C 410.000 612.829 410.766 613.668 411.702 615.027 C 413.166 617.153 413.178 617.318 411.791 616.201 C 410.548 615.200 410.008 615.179 409.435 616.106 C 408.990 616.826 409.113 617.048 409.741 616.660 C 410.318 616.303 411.073 616.748 411.419 617.649 C 411.764 618.549 412.344 618.989 412.708 618.626 C 413.071 618.262 413.489 618.760 413.637 619.732 C 413.785 620.705 415.248 625.325 416.888 630.000 C 420.738 640.974 422.719 654.990 423.674 678.000 C 424.167 689.899 424.679 695.073 425.107 692.500 C 425.473 690.300 425.597 696.150 425.381 705.500 C 425.165 714.850 425.304 721.825 425.689 721.000 C 426.074 720.175 426.324 732.775 426.244 749.000 C 426.150 768.155 426.426 777.623 427.030 776.000 C 427.688 774.232 427.797 775.400 427.403 779.989 C 426.785 787.192 428.200 845.264 428.877 840.500 C 429.111 838.850 429.374 846.050 429.460 856.500 C 429.546 866.950 429.927 884.275 430.307 895.000 C 430.686 905.725 430.734 913.935 430.413 913.244 C 430.092 912.553 429.341 912.289 428.745 912.658 C 428.046 913.090 427.897 912.711 428.326 911.592 C 428.693 910.637 428.448 908.875 427.782 907.678 C 427.116 906.480 426.499 906.063 426.410 906.750 C 426.193 908.446 425.882 907.930 425.594 905.394 C 425.463 904.236 423.813 901.623 421.928 899.586 C 420.042 897.550 419.456 896.697 420.624 897.692 L 422.749 899.500 421.000 896.667 C 420.039 895.110 418.908 893.910 418.488 894.003 C 418.067 894.095 417.352 893.570 416.898 892.835 C 416.438 892.090 416.481 891.500 416.996 891.500 C 417.504 891.500 416.925 890.036 415.710 888.246 C 413.815 885.456 413.643 885.368 414.500 887.625 C 415.483 890.213 415.466 890.209 413.523 887.379 C 412.436 885.796 411.086 884.120 410.523 883.656 C 409.926 883.163 410.249 883.053 411.299 883.393 C 413.018 883.949 413.021 883.844 411.370 881.050 C 410.420 879.441 407.669 876.475 405.258 874.459 C 402.846 872.443 401.103 870.563 401.385 870.282 C 401.667 870.000 403.092 871.059 404.553 872.635 C 406.366 874.592 406.165 874.113 403.919 871.123 C 402.111 868.716 399.251 865.855 397.565 864.767 C 395.879 863.678 395.375 863.079 396.444 863.437 C 398.340 864.070 398.342 864.035 396.539 862.043 C 395.522 860.919 393.805 860.000 392.723 860.000 C 391.172 860.000 390.995 859.710 391.890 858.632 C 392.789 857.550 391.886 856.246 387.565 852.382 C 384.561 849.697 383.318 848.385 384.802 849.466 L 387.500 851.433 385.144 848.789 C 383.687 847.154 382.189 846.374 381.220 846.746 C 380.072 847.186 379.821 846.908 380.283 845.706 C 381.033 843.749 379.458 842.451 378.403 844.157 C 377.884 844.996 377.600 844.886 377.438 843.782 C 377.148 841.802 372.031 836.000 370.575 836.000 C 369.973 836.000 368.892 835.056 368.171 833.903 C 367.451 832.749 366.595 832.071 366.270 832.396 C 365.945 832.721 365.051 832.090 364.283 830.994 C 362.780 828.848 360.387 828.176 361.633 830.250 C 362.136 831.088 361.822 831.044 360.680 830.117 C 359.280 828.982 359.201 828.455 360.238 827.175 C 361.260 825.912 361.254 825.764 360.206 826.394 C 359.457 826.845 357.773 826.411 356.206 825.364 C 354.718 824.369 353.163 823.655 352.750 823.778 C 352.338 823.900 352.000 823.594 352.000 823.098 C 352.000 822.602 350.610 821.316 348.910 820.240 C 347.211 819.164 345.973 818.520 346.160 818.809 C 346.347 819.098 345.495 819.408 344.267 819.499 C 342.698 819.614 342.316 819.324 342.982 818.522 C 344.059 817.224 334.340 810.823 330.665 810.410 C 329.474 810.276 328.950 810.109 329.500 810.039 C 330.050 809.969 328.799 809.014 326.719 807.916 C 324.639 806.818 322.432 806.233 321.814 806.615 C 321.169 807.013 320.967 806.862 321.340 806.259 C 322.174 804.910 319.501 803.870 317.336 804.701 C 316.120 805.168 315.895 804.979 316.500 804.000 C 317.110 803.013 316.877 802.833 315.612 803.319 C 314.593 803.710 314.144 803.576 314.507 802.989 C 315.102 802.026 314.664 801.861 310.500 801.471 C 309.400 801.367 308.950 801.202 309.500 801.102 C 310.050 801.003 308.967 800.256 307.093 799.443 C 305.220 798.630 302.745 798.227 301.593 798.548 C 299.861 799.031 299.758 798.934 301.000 797.985 C 302.198 797.069 301.929 796.963 299.666 797.459 C 298.010 797.822 297.072 797.692 297.409 797.147 C 298.058 796.097 293.387 794.643 292.039 795.476 C 291.562 795.771 291.020 795.651 290.835 795.210 C 290.301 793.930 273.246 789.968 271.371 790.688 C 270.129 791.164 269.893 790.983 270.491 790.014 C 271.137 788.969 270.532 788.814 267.633 789.285 C 265.610 789.613 264.177 789.522 264.449 789.083 C 265.085 788.054 245.705 785.744 239.593 786.120 C 237.026 786.278 235.243 786.090 235.630 785.703 C 236.017 785.317 233.306 785.000 229.606 785.000 L 222.879 785.000 223.418 777.750 C 223.803 772.572 223.685 771.214 223.004 773.000 C 222.342 774.738 222.168 771.997 222.434 764.000 C 222.691 756.278 222.544 753.814 221.987 756.500 C 221.433 759.177 221.269 756.365 221.492 748.000 C 221.722 739.364 221.570 736.891 221.000 740.000 C 220.460 742.945 220.290 739.145 220.508 729.000 C 220.729 718.738 220.552 714.852 219.985 717.500 C 219.405 720.212 219.240 717.154 219.473 708.000 C 219.690 699.439 219.513 695.781 218.987 698.000 C 218.467 700.192 218.285 696.083 218.499 687.000 C 218.726 677.347 218.564 674.004 218.012 677.000 C 217.462 679.989 217.293 676.464 217.508 666.500 C 217.722 656.644 217.552 653.043 217.013 656.000 C 216.482 658.917 216.313 655.048 216.535 645.000 C 216.761 634.764 216.579 630.689 215.999 633.000 C 215.406 635.361 215.232 632.108 215.462 623.000 C 215.694 613.823 215.538 610.941 214.973 614.000 C 214.409 617.053 214.245 613.997 214.463 604.500 C 214.674 595.302 214.499 591.872 213.952 594.500 C 213.381 597.244 213.235 595.047 213.485 587.500 C 213.714 580.586 213.531 577.429 212.993 579.000 C 212.332 580.932 212.158 580.251 212.229 576.000 C 212.280 572.975 212.522 569.938 212.768 569.250 C 213.104 568.309 218.811 567.945 235.857 567.778 L 258.500 567.557 235.500 567.000 L 212.500 566.443 236.250 566.222 C 251.809 566.076 260.000 566.350 260.000 567.016 M 641.000 568.099 L 634.500 568.615 641.893 568.807 L 649.286 569.000 648.620 578.750 C 648.254 584.113 647.723 596.396 647.440 606.046 C 647.157 615.697 646.708 623.375 646.442 623.109 C 646.176 622.843 645.992 626.872 646.033 632.063 C 646.074 637.253 645.677 653.200 645.151 667.500 C 644.624 681.800 644.182 694.850 644.169 696.500 C 644.155 698.150 643.635 707.600 643.012 717.500 C 642.390 727.400 642.099 740.225 642.365 746.000 C 642.656 752.288 642.532 755.096 642.057 753.000 C 641.372 749.981 641.245 750.406 641.132 756.094 C 641.059 759.721 640.708 767.456 640.352 773.282 L 639.704 783.874 636.102 784.442 C 634.121 784.754 630.925 785.057 629.000 785.115 C 623.734 785.273 609.686 787.076 608.628 787.730 C 608.118 788.045 606.083 788.448 604.107 788.626 C 598.525 789.126 595.000 790.072 595.000 791.068 C 595.000 791.567 594.213 791.910 593.250 791.830 C 588.949 791.469 585.913 792.050 586.566 793.107 C 587.012 793.829 586.598 794.011 585.375 793.629 C 582.978 792.881 574.670 795.312 575.714 796.457 C 576.146 796.931 575.725 797.041 574.778 796.702 C 572.736 795.969 567.000 797.780 567.000 799.157 C 567.000 799.685 566.624 799.886 566.165 799.602 C 564.977 798.868 557.977 801.154 558.554 802.087 C 558.817 802.513 558.506 803.187 557.862 803.585 C 557.131 804.037 556.959 803.876 557.405 803.155 C 558.558 801.288 557.025 801.766 547.800 806.150 C 542.961 808.449 539.344 810.748 539.688 811.304 C 540.044 811.881 539.807 811.998 539.131 811.581 C 538.470 811.173 534.337 812.932 529.726 815.583 C 521.489 820.320 513.594 825.940 516.497 825.000 C 517.788 824.582 517.817 824.704 516.679 825.741 C 515.929 826.424 515.031 826.698 514.683 826.350 C 513.922 825.589 503.000 833.844 503.000 835.181 C 503.000 835.696 502.610 835.877 502.134 835.583 C 501.657 835.288 500.420 836.014 499.384 837.195 C 498.348 838.377 498.063 839.015 498.750 838.613 C 499.453 838.202 500.000 838.392 500.000 839.048 C 500.000 839.690 499.304 839.947 498.450 839.619 C 495.882 838.634 465.560 869.894 467.349 871.682 C 467.698 872.031 467.424 872.929 466.741 873.679 C 465.704 874.817 465.582 874.788 466.000 873.497 C 466.275 872.648 465.240 873.539 463.699 875.477 C 462.159 877.414 461.232 879.000 461.640 879.000 C 462.048 879.000 461.509 879.708 460.441 880.574 C 459.374 881.440 459.057 881.867 459.739 881.522 C 460.553 881.111 460.774 881.426 460.384 882.442 C 460.057 883.293 459.418 883.758 458.962 883.477 C 458.507 883.195 457.001 884.885 455.617 887.232 C 454.232 889.580 453.527 891.388 454.049 891.250 C 454.572 891.113 455.000 891.450 455.000 892.000 C 455.000 892.550 454.351 893.000 453.558 893.000 C 452.764 893.000 450.852 895.250 449.308 897.999 C 447.763 900.748 446.275 902.998 446.000 902.999 C 445.725 902.999 445.386 897.037 445.247 889.750 C 445.107 882.462 444.815 871.550 444.596 865.500 C 444.317 857.780 444.446 855.842 445.027 859.000 C 445.590 862.064 445.751 859.193 445.529 850.000 C 445.321 841.332 445.494 837.932 446.014 840.500 C 446.488 842.839 446.693 834.951 446.510 821.500 C 446.316 807.311 446.498 800.799 446.985 804.500 C 447.477 808.243 447.645 802.599 447.432 789.500 C 447.212 776.022 447.418 769.395 448.006 771.000 C 448.595 772.606 448.792 766.348 448.559 753.500 C 448.331 741.017 448.496 735.567 448.997 739.000 C 449.493 742.400 449.689 735.529 449.510 721.000 C 449.341 707.331 449.535 700.010 449.972 703.500 C 450.468 707.461 450.614 704.401 450.400 694.500 C 450.187 684.615 450.389 680.353 450.994 682.000 C 451.593 683.636 451.785 679.140 451.548 669.000 C 451.317 659.081 451.472 655.300 451.981 658.500 C 452.608 662.445 452.716 661.495 452.493 654.000 C 452.305 647.686 452.502 645.338 453.081 647.000 C 453.701 648.779 453.803 648.059 453.435 644.500 C 453.037 640.656 453.178 639.847 454.043 641.000 C 454.925 642.176 455.046 641.788 454.599 639.200 C 454.211 636.951 454.378 636.116 455.122 636.576 C 455.849 637.025 455.989 636.540 455.540 635.125 C 455.122 633.811 455.298 633.000 456.000 633.000 C 456.702 633.000 456.878 632.189 456.460 630.875 C 455.994 629.407 456.140 628.969 456.933 629.459 C 457.745 629.960 457.880 629.369 457.394 627.435 C 456.881 625.389 457.022 624.895 457.954 625.472 C 458.921 626.069 458.954 625.782 458.101 624.188 C 457.182 622.471 457.331 622.030 459.015 621.495 C 460.123 621.144 460.777 620.448 460.468 619.949 C 460.160 619.450 460.475 618.020 461.168 616.771 C 461.988 615.294 462.454 615.024 462.500 616.000 C 462.545 616.946 463.057 616.624 463.885 615.129 C 464.949 613.210 464.953 612.911 463.903 613.560 C 461.666 614.943 466.653 608.587 471.450 603.943 C 473.975 601.499 476.593 599.491 477.270 599.481 C 477.946 599.470 478.651 599.020 478.835 598.481 C 479.387 596.866 481.181 595.000 482.181 595.000 C 482.697 595.000 482.797 595.520 482.405 596.155 C 481.959 596.876 482.131 597.037 482.862 596.585 C 483.506 596.187 483.775 595.445 483.460 594.935 C 483.145 594.426 485.191 592.994 488.007 591.754 L 493.126 589.500 489.000 592.000 L 484.874 594.500 489.993 592.246 C 492.809 591.006 494.839 589.548 494.504 589.007 C 494.145 588.425 494.597 588.292 495.612 588.681 C 496.699 589.098 497.087 588.949 496.670 588.275 C 495.950 587.111 498.668 585.677 500.015 586.509 C 501.163 587.219 506.053 584.895 505.454 583.926 C 504.869 582.979 508.637 581.657 509.826 582.392 C 510.290 582.679 512.331 582.404 514.360 581.782 C 516.925 580.994 517.661 580.388 516.775 579.794 C 516.023 579.290 516.689 579.217 518.399 579.615 C 520.585 580.125 521.108 579.983 520.524 579.039 C 519.950 578.111 520.333 577.971 522.000 578.500 C 523.573 578.999 524.037 578.869 523.541 578.067 C 523.042 577.259 523.670 577.103 525.666 577.541 C 527.924 578.035 528.195 577.930 527.000 577.020 C 525.823 576.124 526.253 576.012 529.000 576.500 C 531.717 576.982 532.165 576.871 531.000 576.000 C 529.814 575.113 530.128 574.990 532.500 575.408 C 534.150 575.699 537.975 575.315 541.000 574.554 C 544.025 573.793 545.600 573.086 544.500 572.983 C 543.262 572.867 543.834 572.467 546.000 571.934 C 547.925 571.461 551.750 571.288 554.500 571.551 C 558.292 571.913 559.017 571.784 557.500 571.018 C 555.998 570.259 556.870 570.122 561.000 570.468 C 565.150 570.816 565.886 570.699 564.000 569.992 C 562.224 569.326 563.526 569.204 568.500 569.573 C 573.532 569.946 575.078 569.798 574.000 569.047 C 572.927 568.299 575.060 568.127 581.500 568.442 C 586.450 568.684 588.700 568.571 586.500 568.191 C 584.300 567.811 597.125 567.519 615.000 567.541 C 632.875 567.564 644.575 567.815 641.000 568.099 "/></g>
</svg>
